<svg width="100" height="39" viewBox="0 0 100 39" fill="none" xmlns="http://www.w3.org/2000/svg">
<path d="M14.3995 0.42943H16.6667V37.7898H13.9706L2.26716 4.47834V37.7285H0V0.42943H3.18627L14.3995 31.9618V0.42943ZM35.4779 9.57015V28.6491C35.4779 34.109 32.9657 38.0965 27.2059 38.0965C21.5686 38.0965 19.0564 34.109 19.0564 28.6491V9.57015C19.0564 4.11026 21.5686 0.122694 27.2059 0.122694C32.9657 0.122694 35.4779 4.11026 35.4779 9.57015ZM33.027 9.38611C33.027 5.3372 31.3726 2.33119 27.2059 2.33119C23.1005 2.33119 21.5074 5.3372 21.5074 9.38611V28.7718C21.5074 32.8207 23.1005 35.8267 27.2059 35.8267C31.3726 35.8267 33.027 32.8207 33.027 28.7718V9.38611ZM67.3407 5.09181L66.6667 9.14072V9.26341H71.201V37.7285H77.0833V0.42943H73.1618C72.3039 2.82197 71.3235 4.90777 67.3407 5.09181ZM100 21.9623V28.7718C100 34.7225 96.875 38.1579 91.1152 38.1579C85.3554 38.1579 82.2304 34.7225 82.2304 28.7718V9.69284C82.2304 3.37409 85.1103 0 91.1765 0C96.9363 0 99.9387 3.43544 99.9387 9.38611V10.3677H94.424V9.01802C94.424 6.3801 93.2598 5.3372 91.3603 5.3372C89.277 5.3372 88.1127 6.3801 88.1127 9.93823V16.7478C89.1544 14.6006 90.9314 13.435 93.5662 13.435C97.7941 13.435 100 16.5024 100 21.9623ZM94.1177 22.453C94.1177 19.8151 92.9534 18.7722 91.0539 18.7722C89.2157 18.7722 87.9902 19.8151 87.9902 22.453V29.2012C87.9902 31.8391 89.1544 32.8207 91.0539 32.8207C92.8922 32.8207 94.1177 31.8391 94.1177 29.2012V22.453ZM24.5098 9.93823C23.7132 9.93823 23.0392 10.613 23.0392 11.4106C23.0392 12.2081 23.7132 12.8829 24.5098 12.8829C25.3064 12.8829 25.9804 12.2081 25.9804 11.4106C25.9804 10.5517 25.3064 9.93823 24.5098 9.93823ZM25.9804 7.91378C25.9804 8.71129 25.3064 9.38611 24.5098 9.38611C23.7132 9.38611 23.0392 8.71129 23.0392 7.91378C23.0392 7.11626 23.7132 6.44145 24.5098 6.44145C25.3064 6.44145 25.9804 7.11626 25.9804 7.91378ZM25.4289 7.23896C25.4289 7.05492 25.3064 6.93222 25.1225 6.93222C24.9387 6.93222 24.8162 7.05492 24.8162 7.23896C24.8162 7.423 24.9387 7.54569 25.1225 7.54569C25.2451 7.54569 25.4289 7.423 25.4289 7.23896ZM58.701 34.3544L53.4926 0.613471H50.8578L45.4044 34.4771L39.8284 0.42943H37.4387L43.4436 37.7898H46.875L52.0833 7.17761L57.1078 37.7285H60.2941L66.2377 0.368083H64.0319L58.701 34.3544Z" fill="black"/>
</svg>
