<svg width="125" height="56" viewBox="0 0 125 56" fill="none" xmlns="http://www.w3.org/2000/svg">
<rect y="6" width="125" height="44" rx="22" fill="black"/>
<path d="M32.25 23.6L26.75 20.42C26.5223 20.2874 26.2635 20.2175 26 20.2175C25.7365 20.2175 25.4777 20.2874 25.25 20.42L19.75 23.6C19.29 23.87 19 24.36 19 24.9V31.25C19 31.79 19.29 32.28 19.75 32.55L25.25 35.73C25.71 36 26.29 36 26.75 35.73L32.25 32.55C32.71 32.28 33 31.79 33 31.25V24.9C33 24.36 32.71 23.87 32.25 23.6ZM21 30.96V26.34L25 28.66V33.27L21 30.96ZM26 26.93L22 24.61L26 22.3L30 24.61L26 26.93ZM27 33.27V28.66L31 26.34V30.96L27 33.27ZM21 18H17.5C16.67 18 16 18.67 16 19.5V23H18V20H21V18ZM31 18H34.5C35.33 18 36 18.67 36 19.5V23H34V20H31V18ZM21 38H17.5C16.67 38 16 37.33 16 36.5V33H18V36H21V38ZM31 38H34.5C35.33 38 36 37.33 36 36.5V33H34V36H31V38Z" fill="white"/>
<path d="M47.0227 23.9091H44.7386V21.7614H51.4432V23.9091H49.1705V36H47.0227V23.9091ZM56.5625 21.7614C57.7595 21.7614 58.6383 22.0909 59.1989 22.75C59.6913 23.3258 59.9375 24.1288 59.9375 25.1591V27.2273C59.9375 28.2348 59.5549 29.0871 58.7898 29.7841L60.3807 36H58.0625L56.7557 30.625C56.6951 30.6326 56.6307 30.6364 56.5625 30.6364H55.3239V36H53.1761V21.7614H56.5625ZM57.8466 25.1932C57.8466 24.3674 57.4375 23.9545 56.6193 23.9545H55.3239V28.5114H56.6193C56.9602 28.5114 57.2481 28.3902 57.483 28.1477C57.7254 27.9053 57.8466 27.6136 57.8466 27.2727V25.1932ZM63.7855 30.0341L60.9105 21.75H63.2741L64.8651 26.8636L66.4446 21.75H68.8196L65.9332 30.0341V36H63.7855V30.0341ZM75.1832 21.5795C76.1302 21.5795 76.9332 21.9129 77.5923 22.5795C78.259 23.2462 78.5923 24.0492 78.5923 24.9886V32.7614C78.5923 33.7083 78.259 34.5152 77.5923 35.1818C76.9257 35.8409 76.1226 36.1705 75.1832 36.1705C74.2363 36.1705 73.4332 35.8371 72.7741 35.1705C72.1151 34.5038 71.7855 33.7008 71.7855 32.7614V24.9886C71.7855 24.0417 72.1188 23.2386 72.7855 22.5795C73.4522 21.9129 74.2514 21.5795 75.1832 21.5795ZM76.3537 24.9432C76.3537 24.6023 76.2325 24.3144 75.9901 24.0795C75.7552 23.8371 75.4673 23.7159 75.1264 23.7159C74.7855 23.7159 74.4938 23.8371 74.2514 24.0795C74.009 24.3144 73.8878 24.6023 73.8878 24.9432V32.7386C73.8878 33.0795 74.009 33.3712 74.2514 33.6136C74.4938 33.8485 74.7855 33.9659 75.1264 33.9659C75.4673 33.9659 75.7552 33.8485 75.9901 33.6136C76.2325 33.3712 76.3537 33.0795 76.3537 32.7386V24.9432ZM82.8935 21.75L85.7344 31.3182V21.75H87.8821V36H85.5753L82.6207 26.875V36H80.473V21.75H82.8935ZM93.6094 32.7273L93.0866 36H90.848L93.2685 21.7614H96.223L98.6094 36H96.3594L95.848 32.7273H93.6094ZM94.7344 25.0227L93.9389 30.6364H95.5298L94.7344 25.0227ZM103.797 21.7614C104.994 21.7614 105.873 22.0909 106.433 22.75C106.926 23.3258 107.172 24.1288 107.172 25.1591V27.2273C107.172 28.2348 106.789 29.0871 106.024 29.7841L107.615 36H105.297L103.99 30.625C103.929 30.6326 103.865 30.6364 103.797 30.6364H102.558V36H100.411V21.7614H103.797ZM105.081 25.1932C105.081 24.3674 104.672 23.9545 103.854 23.9545H102.558V28.5114H103.854C104.195 28.5114 104.482 28.3902 104.717 28.1477C104.96 27.9053 105.081 27.6136 105.081 27.2727V25.1932Z" fill="white"/>
</svg>
